HIERARCHY
ROOT ui
{
	 OFFSET 0 0 0
	 CHANNELS 3 XPosition YPosition Z Position
	 EndSite
	 {
	 OFFSET 0 -1 0
	 }
}
ROOT li
{
	 OFFSET 0 0 0
	 CHANNELS 3 XPosition YPosition Z Position
	 EndSite
	 {
	 OFFSET 0 -1 0
	 }
}
ROOT ul
{
	 OFFSET 0 0 0
	 CHANNELS 3 XPosition YPosition Z Position
	 EndSite
	 {
	 OFFSET 0 -1 0
	 }
}
ROOT ll
{
	 OFFSET 0 0 0
	 CHANNELS 3 XPosition YPosition Z Position
	 EndSite
	 {
	 OFFSET 0 -1 0
	 }
}
ROOT tt
{
	 OFFSET 0 0 0
	 CHANNELS 3 XPosition YPosition Z Position
	 EndSite
	 {
	 OFFSET 0 -1 0
	 }
}
ROOT tb
{
	 OFFSET 0 0 0
	 CHANNELS 3 XPosition YPosition Z Position
	 EndSite
	 {
	 OFFSET 0 -1 0
	 }
}
ROOT td
{
	 OFFSET 0 0 0
	 CHANNELS 3 XPosition YPosition Z Position
	 EndSite
	 {
	 OFFSET 0 -1 0
	 }
}
ROOT v
{
	 OFFSET 0 0 0
	 CHANNELS 3 XPosition YPosition Z Position
	 EndSite
	 {
	 OFFSET 0 -1 0
	 }
}
ROOT bn
{
	 OFFSET 0 0 0
	 CHANNELS 3 XPosition YPosition Z Position
	 EndSite
	 {
	 OFFSET 0 -1 0
	 }
}
MOTION
Frames: 24
Frame Time: 0.002
0.022704500198364258	-1.522980034351349E-4	0		0.48563864135742185	-2.36960107421875	0		-1.0138553466796876	0.1317100372314453	0		-0.5630095825195313	-2.682629638671875	0		1.4636748046875	-0.5356657104492187	0		3.19674853515625	-0.014450418472290038	0		4.4065693359375	0.31273593139648437	0		5.95428662109375	0.45404605102539064	0		-0.052644412994384764	5.91609619140625	0		
-0.004248684883117676	-2.556850016117096E-4	0		0.4588048095703125	-2.367685791015625	0		-1.0219974365234374	0.11534893798828125	0		-0.5555480346679688	-2.656146240234375	0		1.4847403564453125	-0.53625732421875	0		3.171818603515625	-0.012447362899780273	0		4.410521484375	0.30545840454101564	0		5.95513037109375	0.43786639404296873	0		-0.220148681640625	5.8895869140625	0		
-0.004233625888824463	-6.274610161781312E-4	0		0.4698589172363281	-2.373163330078125	0		-1.0160442504882812	0.10986785888671875	0		-0.6071260986328125	-2.62995166015625	0		1.463778564453125	-0.5363299560546875	0		3.16175537109375	-0.01957564353942871	0		4.4154443359375	0.2982103271484375	0		5.95920703125	0.44469174194335936	0		-0.21938520812988282	5.88819482421875	0		
-2.0383200049400329E-4	0.0029943439960479737	0		0.4671085205078125	-2.358444091796875	0		-0.999223388671875	0.09530326080322266	0		-0.6045610961914063	-2.588333740234375	0		1.4698748779296875	-0.5286723022460937	0		3.2066474609375	-0.028290306091308594	0		4.420326171875	0.28999838256835936	0		5.96326416015625	0.4525518188476563	0		-0.20353517150878905	5.896671875	0		
-2.4940800666809084E-4	0.0026994800567626954	0		0.45824481201171874	-2.350619873046875	0		-1.0174404907226562	0.08017377471923828	0		-0.5982251586914062	-2.56372119140625	0		1.4588280029296874	-0.5307863159179688	0		3.165763671875	-0.014000068664550782	0		4.41128173828125	0.2909754333496094	0		5.95421337890625	0.4535884094238281	0		-0.1858543243408203	5.89216650390625	0		
-0.004369412899017334	-0.0015143389701843262	0		0.4562333068847656	-2.352839599609375	0		-0.9497027587890625	0.06311427307128906	0		-0.5949369506835938	-2.540037353515625	0		1.4757261962890624	-0.5351827392578125	0		3.18647412109375	-0.03337799453735352	0		4.40697119140625	0.2709241638183594	0		5.96312060546875	0.45344622802734375	0		-0.18712271118164062	5.893912109375	0		
-0.004473373889923095	-0.0017397940158843995	0		0.4562095947265625	-2.35304931640625	0		-1.0260281982421875	0.04370937728881836	0		-0.6272911376953125	-2.4809169921875	0		1.4556529541015626	-0.5341336669921875	0		3.175427734375	-0.028371625900268555	0		4.411779296875	0.26379364013671874	0		5.950091796875	0.461569580078125	0		-0.1874278564453125	5.89368017578125	0		
-0.00460442590713501	-0.0019335869550704955	0		0.4561516418457031	-2.353228759765625	0		-1.0193175659179687	0.0294064884185791	0		-0.61114501953125	-2.463309814453125	0		1.4555384521484376	-0.5342820434570312	0		3.19521826171875	-0.035689613342285154	0		4.4124833984375	0.24972682189941406	0		5.9538564453125	0.4535166625976563	0		-0.25488322448730466	5.88123046875	0		
-7.15520977973938E-4	0.0018576979637145996	0		0.46213876342773436	-2.346447265625	0		-1.0126192016601563	0.016137374877929687	0		-0.6629282836914062	-2.43591259765625	0		1.458430908203125	-0.531439208984375	0		3.188186767578125	-0.024687801361083984	0		4.41624267578125	0.24264076232910156	0		5.95877734375	0.4614610900878906	0		-0.22113633728027343	5.88668017578125	0		
-8.918750286102295E-4	0.001722247004508972	0		0.4800844116210938	-2.340772216796875	0		-0.9400339965820312	-0.0058329801559448245	0		-0.5729071044921875	-2.424065673828125	0		1.4632003173828125	-0.5375949096679687	0		3.196999267578125	-0.025846750259399413	0		4.416060546875	0.242611328125	0		5.95760107421875	0.462479736328125	0		-0.2204651336669922	5.8855283203125	0		
-0.001084987998008728	0.0016133749485015868	0		0.4509412231445312	-2.340549072265625	0		-1.0182554321289063	-0.008095053672790528	0		-0.65266796875	-2.38930029296875	0		1.4809727783203126	-0.5418732299804687	0		3.205783935546875	-0.027989669799804686	0		4.41670703125	0.22858302307128905	0		5.96539794921875	0.462404541015625	0		-0.18672578430175782	5.890037109375	0		
-0.005334547996520996	-0.002426383972167969	0		0.4487435302734375	-2.343603271484375	0		-0.9497420654296875	-0.03396041870117188	0		-0.5677371826171875	-2.3813388671875	0		1.48077685546875	-0.5419317016601563	0		3.2055791015625	-0.028018030166625976	0		4.41734228515625	0.21456556701660157	0		5.95327392578125	0.470556884765625	0		-0.22207623291015624	5.886337890625	0		
-0.0055473179817199705	-0.0024884018898010253	0		0.4246443481445312	-2.336393310546875	0		-1.0130501708984374	-0.042338489532470706	0		-0.6226567993164063	-2.3578017578125	0		1.4595843505859376	-0.5407393798828125	0		3.173379638671875	-0.026678388595581054	0		4.42103759765625	0.20652519226074217	0		5.96104296875	0.46949453735351565	0		-0.22040945434570314	5.88325048828125	0		
-0.0017175179719924926	0.0014255889654159546	0		0.4654020080566406	-2.34188232421875	0		-0.9273906860351563	-0.054343017578125	0		-0.6076651000976563	-2.342017822265625	0		1.4713873291015624	-0.53989501953125	0		3.2261845703125	-0.025265682220458986	0		4.42980908203125	0.20544041442871094	0		5.969822265625	0.4694292297363281	0		-0.20064431762695312	5.88798486328125	0		
-0.0019261889457702637	0.0014029090404510498	0		0.41739947509765624	-2.32537060546875	0		-1.004715576171875	-0.06452500915527344	0		-0.608659423828125	-2.325037353515625	0		1.4832061767578124	-0.5380337524414063	0		3.206054931640625	-0.018031375885009766	0		4.43753125	0.19937986755371093	0		5.97779541015625	0.48638470458984373	0		-0.22097357177734375	5.88318115234375	0		
0.02387642478942871	0.0011104249954223633	0		0.44317169189453126	-2.330658203125	0		-0.9339701538085937	-0.07032442474365234	0		-0.6047755126953125	-2.320093994140625	0		1.492883056640625	-0.5501331176757812	0		3.2067158203125	-0.031013050079345704	0		4.4442666015625	0.19334466552734375	0		5.97759423828125	0.4864427795410156	0		-0.052933250427246094	5.90931787109375	0		
-0.006342501163482666	-0.0025487420558929445	0		0.4150430297851562	-2.32833544921875	0		-1.0072297973632813	-0.0775192642211914	0		-0.5940169067382812	-2.32821142578125	0		1.5106669921875	-0.55430615234375	0		3.204451416015625	-0.03894756317138672	0		4.44984521484375	0.17133567810058595	0		5.97232470703125	0.4785701599121094	0		-0.22146980285644532	5.8831806640625	0		
-0.006495275974273682	-0.0025259509086608886	0		0.45180126953125	-2.33871533203125	0		-1.0033380126953124	-0.07355084228515625	0		-0.6490768432617188	-2.321589111328125	0		1.49545458984375	-0.5601025390625	0		3.2452744140625	-0.04134392547607422	0		4.45461328125	0.16434866333007814	0		5.9813427734375	0.49455300903320315	0		-0.22069287109375	5.8821904296875	0		
-0.002576172113418579	0.001464169979095459	0		0.4188656311035156	-2.323314453125	0		-0.9915728149414063	-0.08365727996826172	0		-0.6271370849609375	-2.31780322265625	0		1.5612431640625	-0.5687798461914062	0		3.245150146484375	-0.04127898788452149	0		4.465486328125	0.1643039093017578	0		5.97712548828125	0.48668814086914064	0		-0.2509920654296875	5.87155322265625	0		
0.023330345153808593	0.001222892999649048	0		0.44473699951171874	-2.3285517578125	0		-0.9916640014648438	-0.08362108612060547	0		-0.621132568359375	-2.310830322265625	0		1.5471019287109375	-0.5735676879882813	0		3.2589697265625	-0.049360126495361326	0		4.47115087890625	0.14232199096679687	0		5.97702978515625	0.4867837829589844	0		-0.18301719665527344	5.88184765625	0		
-0.0027231709957122804	0.0015622040033340455	0		0.44469973754882813	-2.3284951171875	0		-0.9957511596679688	-0.08653110504150391	0		-0.6161153564453125	-2.305836669921875	0		1.5428646240234376	-0.5904573974609375	0		3.263837890625	-0.056336288452148435	0		4.4780283203125	0.13633306884765625	0		5.97598193359375	0.48789385986328127	0		-0.217170166015625	5.8772734375	0		
0.020215200424194335	-0.0026295919418334963	0		0.4406556091308594	-2.33238720703125	0		-1.002942138671875	-0.10239949798583985	0		-0.6470151977539063	-2.2964404296875	0		1.53677587890625	-0.5973200073242187	0		3.244757080078125	-0.06204445266723633	0		4.478857421875	0.12241403198242187	0		5.97205029296875	0.4960386047363281	0		-0.18317369079589843	5.881958984375	0		
-0.006761068820953369	-0.0022671239376068114	0		0.43256048583984374	-2.34422998046875	0		-0.9969746704101563	-0.10740506744384766	0		-0.6049598999023438	-2.294839599609375	0		1.5337578125	-0.6012116088867188	0		3.26470166015625	-0.0691780776977539	0		4.48379052734375	0.11445249938964844	0		5.9720693359375	0.49614044189453127	0		-0.2172397155761719	5.87739697265625	0		
0.023339086532592774	0.0014734749794006348	0		0.4277734985351562	-2.331103759765625	0		-1.0597916259765625	-0.09564970397949218	0		-0.6468765869140625	-2.29331201171875	0		1.5446976318359376	-0.6122537841796875	0		3.28272607421875	-0.07228860473632813	0		4.49774853515625	0.10539248657226563	0		5.98911279296875	0.49505465698242185	0		-0.20209207153320313	5.88830078125	0		
